<svg width="32" height="32" viewBox="0 0 32 32" fill="none" xmlns="http://www.w3.org/2000/svg">
<g id="Frame">
<path id="Vector" d="M6.66669 9.33325H25.0534C25.4259 9.33327 25.7943 9.41135 26.1349 9.56246C26.4754 9.71357 26.7805 9.93437 27.0305 10.2106C27.2805 10.4868 27.4698 10.8124 27.5863 11.1663C27.7027 11.5202 27.7438 11.8945 27.7067 12.2653L26.9067 20.2653C26.8409 20.9233 26.5329 21.5334 26.0426 21.9771C25.5523 22.4208 24.9146 22.6666 24.2534 22.6666H11.52C10.9033 22.6668 10.3056 22.4533 9.82861 22.0624C9.35164 21.6715 9.02489 21.1273 8.90402 20.5226L6.66669 9.33325Z" stroke="#454F5B" stroke-width="2" stroke-linecap="round" stroke-linejoin="round"/>
<path id="Vector_2" d="M6.66669 9.33333L5.58669 5.00933C5.51446 4.721 5.34796 4.46508 5.11363 4.28221C4.8793 4.09934 4.59059 4.00001 4.29335 4H2.66669" stroke="#454F5B" stroke-width="2" stroke-linecap="round" stroke-linejoin="round"/>
<path id="Vector_3" d="M10.6667 28H13.3334" stroke="#454F5B" stroke-width="2" stroke-linecap="round" stroke-linejoin="round"/>
<path id="Vector_4" d="M21.3333 28H24" stroke="#454F5B" stroke-width="2" stroke-linecap="round" stroke-linejoin="round"/>
</g>
</svg>
