<svg width="126" height="26" viewBox="0 0 126 26" fill="none" xmlns="http://www.w3.org/2000/svg">
<g clip-path="url(#clip0_414_661)">
<path fill-rule="evenodd" clip-rule="evenodd" d="M25.4042 6.44375C25.584 5.85225 25.4042 5.41675 24.5429 5.41675H21.6992C20.9755 5.41675 20.6418 5.79266 20.4609 6.20758C20.4609 6.20758 19.0147 9.66992 16.9661 11.9189C16.3031 12.5711 16.0019 12.778 15.6401 12.778C15.4592 12.778 15.1873 12.5711 15.1873 11.9785V6.44375C15.1873 5.73308 14.9879 5.41675 14.3856 5.41675H9.91358C9.46183 5.41675 9.18992 5.74608 9.18992 6.05916C9.18992 6.73192 10.2148 6.88792 10.3198 8.78158V12.8961C10.3198 13.7985 10.1541 13.9621 9.79225 13.9621C8.82808 13.9621 6.48267 10.4835 5.09058 6.50333C4.82083 5.72875 4.54783 5.41675 3.82092 5.41675H0.975C0.1625 5.41675 0 5.79266 0 6.20758C0 6.94642 0.964167 10.6168 4.49042 15.4712C6.84125 18.7862 10.1508 20.5834 13.1658 20.5834C14.9738 20.5834 15.197 20.1848 15.197 19.4968V16.9911C15.197 16.1927 15.3682 16.0334 15.9413 16.0334C16.3638 16.0334 17.0863 16.2414 18.7742 17.8393C20.7025 19.7341 21.0199 20.5834 22.1054 20.5834H24.9492C25.7617 20.5834 26.169 20.1848 25.935 19.3961C25.6772 18.6118 24.7563 17.4732 23.5354 16.1223C22.8724 15.3531 21.8779 14.5243 21.5757 14.1094C21.1543 13.5775 21.2745 13.3403 21.5757 12.8668C21.5757 12.8668 25.0423 8.072 25.4031 6.44375H25.4042Z" fill="white"/>
</g>
<path d="M75.6132 5.3483C74.7087 5.74913 73.7369 6.01996 72.7153 6.14238C73.7694 5.51166 74.558 4.51897 74.934 3.34955C73.9437 3.93779 72.8598 4.35184 71.7295 4.57371C70.9694 3.76215 69.9626 3.22423 68.8655 3.04348C67.7684 2.86272 66.6423 3.04924 65.662 3.57407C64.6817 4.0989 63.9022 4.93269 63.4443 5.94598C62.9865 6.95926 62.876 8.09536 63.13 9.17788C61.1233 9.07713 59.1603 8.55556 57.3682 7.64703C55.5761 6.7385 53.9952 5.4633 52.7278 3.90421C52.2945 4.65171 52.0453 5.51838 52.0453 6.44138C52.0448 7.27229 52.2495 8.09048 52.641 8.82334C53.0326 9.5562 53.599 10.1811 54.29 10.6425C53.4886 10.617 52.7049 10.4005 52.0042 10.011V10.076C52.0041 11.2413 52.4072 12.3709 53.1451 13.2729C53.883 14.1749 54.9103 14.7938 56.0526 15.0246C55.3092 15.2258 54.5298 15.2555 53.7732 15.1113C54.0955 16.114 54.7233 16.9909 55.5687 17.6191C56.4141 18.2474 57.4348 18.5955 58.4879 18.6148C56.7002 20.0182 54.4925 20.7794 52.2197 20.776C51.8172 20.7762 51.4149 20.7526 51.0151 20.7056C53.322 22.1889 56.0074 22.9761 58.7501 22.973C68.0342 22.973 73.1097 15.2835 73.1097 8.61455C73.1097 8.39788 73.1042 8.17905 73.0945 7.96238C74.0817 7.24844 74.9339 6.36435 75.6111 5.35155L75.6132 5.3483Z" fill="white"/>
<g clip-path="url(#clip1_414_661)">
<path d="M117.33 4.31708H119.704V0.183083C119.294 0.12675 117.886 0 116.246 0C112.823 0 110.479 2.15258 110.479 6.10892V9.75H106.703V14.3715H110.479V26H115.109V14.3726H118.733L119.308 9.75108H115.108V6.56717C115.109 5.23142 115.469 4.31708 117.33 4.31708Z" fill="white"/>
</g>
<defs>
<clipPath id="clip0_414_661">
<rect width="26" height="26" fill="white"/>
</clipPath>
<clipPath id="clip1_414_661">
<rect width="26" height="26" fill="white" transform="translate(100)"/>
</clipPath>
</defs>
</svg>
