<svg width="104" height="17" viewBox="0 0 104 17" fill="none" xmlns="http://www.w3.org/2000/svg">
<path d="M7.38263 2.25537C7.59596 1.69271 8.40329 1.69271 8.61729 2.25537L9.99729 6.07804C10.094 6.33137 10.34 6.50004 10.6146 6.50004H14.006C14.6326 6.50004 14.906 7.28004 14.4133 7.66204L12 9.83337C11.8919 9.91648 11.8129 10.0317 11.7743 10.1625C11.7357 10.2933 11.7396 10.4329 11.7853 10.5614L12.6666 14.2967C12.8813 14.8967 12.1866 15.412 11.6613 15.0427L8.38329 12.9627C8.27103 12.8838 8.13717 12.8415 7.99996 12.8415C7.86275 12.8415 7.72888 12.8838 7.61663 12.9627L4.33863 15.0427C3.81396 15.412 3.11863 14.896 3.33329 14.2967L4.21463 10.5614C4.26034 10.4329 4.2642 10.2933 4.22563 10.1625C4.18707 10.0317 4.10806 9.91648 3.99996 9.83337L1.58663 7.66204C1.09329 7.28004 1.36796 6.50004 1.99329 6.50004H5.38463C5.51815 6.50049 5.64867 6.46038 5.7589 6.38502C5.86914 6.30967 5.9539 6.20262 6.00196 6.07804L7.38196 2.25537H7.38263Z" fill="#F7AB3A" stroke="#F7AB3A" stroke-width="0.5" stroke-linecap="round" stroke-linejoin="round"/>
<path d="M29.3826 2.25537C29.596 1.69271 30.4033 1.69271 30.6173 2.25537L31.9973 6.07804C32.094 6.33137 32.34 6.50004 32.6146 6.50004H36.006C36.6326 6.50004 36.906 7.28004 36.4133 7.66204L34 9.83337C33.8919 9.91648 33.8129 10.0317 33.7743 10.1625C33.7357 10.2933 33.7396 10.4329 33.7853 10.5614L34.6666 14.2967C34.8813 14.8967 34.1866 15.412 33.6613 15.0427L30.3833 12.9627C30.271 12.8838 30.1372 12.8415 30 12.8415C29.8628 12.8415 29.7289 12.8838 29.6166 12.9627L26.3386 15.0427C25.814 15.412 25.1186 14.896 25.3333 14.2967L26.2146 10.5614C26.2603 10.4329 26.2642 10.2933 26.2256 10.1625C26.1871 10.0317 26.1081 9.91648 26 9.83337L23.5866 7.66204C23.0933 7.28004 23.368 6.50004 23.9933 6.50004H27.3846C27.5182 6.50049 27.6487 6.46038 27.7589 6.38502C27.8691 6.30967 27.9539 6.20262 28.002 6.07804L29.382 2.25537H29.3826Z" fill="#F7AB3A"/>
<path d="M51.3826 2.25537C51.596 1.69271 52.4033 1.69271 52.6173 2.25537L53.9973 6.07804C54.094 6.33137 54.34 6.50004 54.6146 6.50004H58.006C58.6326 6.50004 58.906 7.28004 58.4133 7.66204L56 9.83337C55.8919 9.91648 55.8129 10.0317 55.7743 10.1625C55.7357 10.2933 55.7396 10.4329 55.7853 10.5614L56.6666 14.2967C56.8813 14.8967 56.1866 15.412 55.6613 15.0427L52.3833 12.9627C52.271 12.8838 52.1372 12.8415 52 12.8415C51.8628 12.8415 51.7289 12.8838 51.6166 12.9627L48.3386 15.0427C47.814 15.412 47.1186 14.896 47.3333 14.2967L48.2146 10.5614C48.2604 10.4329 48.2642 10.2933 48.2256 10.1625C48.1871 10.0317 48.1081 9.91648 48 9.83337L45.5866 7.66204C45.0933 7.28004 45.368 6.50004 45.9933 6.50004H49.3846C49.5182 6.50049 49.6487 6.46038 49.7589 6.38502C49.8692 6.30967 49.9539 6.20262 50.002 6.07804L51.382 2.25537H51.3826Z" fill="#F7AB3A"/>
<path d="M73.3826 2.25537C73.596 1.69271 74.4033 1.69271 74.6173 2.25537L75.9973 6.07804C76.094 6.33137 76.34 6.50004 76.6146 6.50004H80.006C80.6326 6.50004 80.906 7.28004 80.4133 7.66204L78 9.83337C77.8919 9.91648 77.8129 10.0317 77.7743 10.1625C77.7357 10.2933 77.7396 10.4329 77.7853 10.5614L78.6666 14.2967C78.8813 14.8967 78.1866 15.412 77.6613 15.0427L74.3833 12.9627C74.271 12.8838 74.1372 12.8415 74 12.8415C73.8628 12.8415 73.7289 12.8838 73.6166 12.9627L70.3386 15.0427C69.814 15.412 69.1186 14.896 69.3333 14.2967L70.2146 10.5614C70.2604 10.4329 70.2642 10.2933 70.2256 10.1625C70.1871 10.0317 70.1081 9.91648 70 9.83337L67.5866 7.66204C67.0933 7.28004 67.368 6.50004 67.9933 6.50004H71.3846C71.5182 6.50049 71.6487 6.46038 71.7589 6.38502C71.8692 6.30967 71.9539 6.20262 72.002 6.07804L73.382 2.25537H73.3826Z" stroke="#C4CDD5" stroke-width="0.5" stroke-linecap="round" stroke-linejoin="round"/>
<path d="M95.3826 2.25537C95.596 1.69271 96.4033 1.69271 96.6173 2.25537L97.9973 6.07804C98.094 6.33137 98.34 6.50004 98.6146 6.50004H102.006C102.633 6.50004 102.906 7.28004 102.413 7.66204L100 9.83337C99.8919 9.91648 99.8129 10.0317 99.7743 10.1625C99.7357 10.2933 99.7396 10.4329 99.7853 10.5614L100.667 14.2967C100.881 14.8967 100.187 15.412 99.6613 15.0427L96.3833 12.9627C96.271 12.8838 96.1372 12.8415 96 12.8415C95.8628 12.8415 95.7289 12.8838 95.6166 12.9627L92.3386 15.0427C91.814 15.412 91.1186 14.896 91.3333 14.2967L92.2146 10.5614C92.2604 10.4329 92.2642 10.2933 92.2256 10.1625C92.1871 10.0317 92.1081 9.91648 92 9.83337L89.5866 7.66204C89.0933 7.28004 89.368 6.50004 89.9933 6.50004H93.3846C93.5182 6.50049 93.6487 6.46038 93.7589 6.38502C93.8692 6.30967 93.9539 6.20262 94.002 6.07804L95.382 2.25537H95.3826Z" stroke="#C4CDD5" stroke-width="0.5" stroke-linecap="round" stroke-linejoin="round"/>
</svg>
